<?xml version="1.0" encoding="UTF-8" standalone="no"?>
<!DOCTYPE svg PUBLIC "-//W3C//DTD SVG 1.1//EN" "http://www.w3.org/Graphics/SVG/1.1/DTD/svg11.dtd">
<svg width="100%" height="100%" viewBox="0 0 400 400" version="1.1" xmlns="http://www.w3.org/2000/svg" xmlns:xlink="http://www.w3.org/1999/xlink" xml:space="preserve" xmlns:serif="http://www.serif.com/" style="fill-rule:evenodd;clip-rule:evenodd;stroke-linejoin:round;stroke-miterlimit:2;">
    <g id="svgg" transform="matrix(1.293894,0,0,1.293894,-58.580581,-49.833642)">
        <path id="path0" d="M169.2,91.677C159.477,93.885 153.617,97.813 148.132,105.8C146.03,108.861 145.072,109.6 143.201,109.6C127.948,109.6 114.142,121.982 112.472,137.159C111.82,143.083 111.722,143.171 108.94,140.326C107.688,139.047 104.977,136.442 102.913,134.538C99.252,131.159 99.173,130.986 99.63,127.338C101.176,114.987 85.814,108.171 77.219,117.395C68.873,126.354 77.933,141.542 89.729,138.365L92.965,137.494L97.974,142.147C104.416,148.131 104.399,148.076 101.152,152.146C97.921,156.197 95.2,162.908 95.2,166.83L95.2,169.6L80.075,169.6L78.809,166.931C73.494,155.732 55.213,160.494 55.203,173.079C55.193,186.384 75.053,191.235 79.447,179C79.875,177.807 81.019,177.6 87.188,177.6L94.426,177.6L95.777,180.434C97.053,183.109 97.05,183.39 95.717,185.434C90.982,192.7 90.055,196.015 90.027,205.801L90,215.203L87.2,215.655C85.66,215.904 83.433,216.287 82.252,216.506C80.537,216.824 79.467,216.267 76.937,213.737C66.083,202.883 48.379,216.97 57,229.6C62.533,237.706 77.319,236.403 79.525,227.616C80.005,225.702 93.131,222.269 94.343,223.739C94.643,224.103 95.878,225.751 97.087,227.403C99.094,230.144 105.558,234.93 109,236.224C111.695,237.237 110.339,239.071 102.685,244.762C95.277,250.271 94.876,250.46 92.595,249.515C83.322,245.674 73.295,253.044 74.735,262.643C77.047,278.06 100,277.217 100,261.715C100,257.794 100.11,257.602 103.8,255.091C105.89,253.669 107.78,252.302 108,252.053C110.544,249.173 111.062,249.416 113.597,254.671C118.526,264.891 128.718,272.501 138.887,273.554C144.658,274.151 144.107,273.817 146.22,278C156.178,297.717 185.114,300.64 197.232,283.154L199.323,280.136L204.662,285.548C219.602,300.695 244.259,296.876 253.71,277.952C255.449,274.469 256.875,273.64 261.2,273.599C270.183,273.513 282.048,264.312 286.926,253.648C288.022,251.254 289.161,249.661 289.459,250.108C289.756,250.555 292.25,252.436 295,254.29L300,257.66L300,261.706C300,271.529 310.248,276.935 319.262,271.869C327.082,267.474 327.082,254.926 319.262,250.531C315.856,248.617 308.199,248.121 306.607,249.713C305.373,250.947 290.085,240.275 289.809,237.985C289.665,236.793 290.579,235.952 293.495,234.595C297.501,232.73 300.54,230.201 304,225.852L306,223.338L312,224.297C319.134,225.437 319.58,225.673 321.248,229.187C324.794,236.661 337.512,237.265 342.543,230.199C351.702,217.337 332.896,202.168 322.487,214.023C320.215,216.61 319.769,216.788 316.614,216.361C309.36,215.38 309.967,216.27 309.984,206.631C310.001,197.175 308.714,191.963 305.177,187.169C302.976,184.186 302.761,182.639 304.128,179.638C305.45,176.738 320.8,176.546 320.8,179.429C320.8,181.192 326.593,185.6 329.101,185.744C339.625,186.349 345.375,181.344 344.62,172.236C343.597,159.909 326.41,156.071 321.171,167L319.925,169.6L304.8,169.6L304.8,166.838C304.8,164.242 304.262,162.402 302.1,157.6C301.111,155.402 300.934,155.138 298.012,151.485C295.332,148.134 294.94,148.945 302.928,141.336L306.985,137.471L310.266,138.454C322,141.97 331.106,125.954 322.423,117.073C313.832,108.286 298.831,115.213 300.263,127.306L300.714,131.11L295.112,136.555C287.844,143.62 287.2,143.745 287.2,138.089C287.2,123.591 272.508,109.737 257.01,109.62C254.898,109.604 254.07,109.047 252.523,106.6C240.909,88.237 214.455,86.382 202.858,103.117C200.226,106.914 199.807,107.046 198.191,104.579C192.571,96.001 178.241,89.625 169.2,91.677M180.275,102.695C186.91,105.005 192.569,112.436 194.063,120.8C194.416,122.78 194.772,124.67 194.853,125C194.934,125.33 195.045,129.92 195.1,135.2L195.2,144.8L204.8,144.8L204.809,133.8C204.823,115.973 208.025,108.721 218.116,103.663C225.788,99.818 234.313,101.513 241.016,108.216C244.697,111.897 244.676,112.007 239.628,115.823C227.541,124.958 225.235,150.713 237.206,142.87C239.221,141.549 239.465,140.767 239.235,136.374C238.569,123.694 254.875,115.47 266.95,122.395C277.237,128.295 281.196,140.74 273.307,142.378C262.424,144.637 254.935,152.822 255.372,161.98C255.747,169.832 263.099,170.978 264.471,163.398C268.038,143.699 295.2,150.989 295.2,171.645C295.2,182.903 287.583,187.967 270.618,187.988C259.513,188.002 257.821,188.904 258.889,194.245C260.046,200.031 284.865,199.02 293.553,192.833L295.94,191.134L297.97,195.14C308.85,216.612 283.659,238.927 268.4,221.333C264.863,217.255 262.829,216.736 260.151,219.231C254.707,224.302 267.525,237.6 277.857,237.6C283.28,237.6 278.848,250.978 270.966,258.398C257.94,270.66 243.544,262.35 238.845,239.856C237.517,233.498 231.221,233.589 228.782,240C226.428,246.188 220.232,252 215.989,252C214.398,252 213.513,255.999 214.599,258.274C216.345,261.927 223.31,261.161 228.316,256.766C231.794,253.713 232.097,253.768 233.981,257.809C234.851,259.674 237.84,263.466 240.624,266.235C246.374,271.955 246.438,272.582 241.795,277.721C234.21,286.117 221.466,287.109 213.319,279.937C206.431,273.874 204.8,267.85 204.8,248.469L204.8,233.524L194.8,234L194.8,248.8C194.8,267.86 193.386,273.758 187.475,279.353C178.09,288.235 161.181,285.456 155.329,274.069L153.721,270.939L156.689,268.788C160.649,265.92 163.879,261.995 165.954,257.53L167.66,253.859L171.123,256.518C178.685,262.323 186.198,261.805 185.46,255.531C185.254,253.778 184.332,252.872 181.009,251.16C175.561,248.352 170.4,241.979 170.4,238.06C170.4,236.653 168.003,235.2 165.684,235.2C163.483,235.2 161.047,237.985 160.554,241.065C157.042,263.022 141.086,270.541 127.381,256.699C123.079,252.354 120.603,247.266 120.154,241.843L119.802,237.6L122.235,237.6C127.508,237.6 135.433,232.944 138.787,227.876C144.185,219.72 137.738,213.657 131.614,221.13C117.037,238.92 91.546,217.167 101.688,195.591C103.699,191.312 102.991,191.402 109.481,194.6C114.609,197.126 115.099,197.208 126.734,197.476C140.06,197.784 140.8,197.518 140.8,192.407C140.8,188.377 139.817,188.001 129.24,187.988C115.049,187.97 109.405,185.474 105.987,177.702C104.648,174.658 104.378,165.955 105.6,165.2C106.04,164.928 106.4,163.983 106.4,163.101C106.4,160.463 114.247,153.358 118.506,152.14C125.715,150.076 133.807,154.812 134.916,161.742C136.241,170.031 144.8,170.554 144.8,162.346C144.8,152.517 137.7,144.749 126.526,142.352C118.51,140.633 123.196,127.272 133.678,121.961C146.171,115.63 162.667,125.158 160.407,137.4C159.513,142.247 164.409,145.469 168.111,142.471C174.044,137.667 168.639,121.305 158.968,114.792L155.059,112.16L158.13,108.752C163.726,102.539 172.744,100.073 180.275,102.695M90.036,122.764C94.002,126.729 89.615,132.977 84.709,130.351C81.346,128.552 81.077,123.29 84.269,121.745C86.925,120.461 87.907,120.634 90.036,122.764M315.562,121.728C318.529,123.08 318.496,128.176 315.508,130.134C310.831,133.198 305.625,126.36 309.861,122.717C312.411,120.524 312.778,120.46 315.562,121.728M174.462,162.6C173.498,164.91 170.729,172.02 168.307,178.4C165.885,184.78 163.565,190.81 163.152,191.8C161.321,196.184 160.69,197.788 156.842,207.85C152.074,220.316 152.024,220.097 159.591,219.922C167.002,219.75 167.158,219.622 169.714,211.6C171.406,206.29 171.113,206.4 183.563,206.4L194.93,206.4L196.814,212.2C199.395,220.146 199.214,220 206.451,220C215.19,220 215.256,221.799 205.594,196.8C203.468,191.3 199.27,180.411 196.264,172.601L190.8,158.403L183.507,158.401L176.213,158.4L174.462,162.6M221.79,189L222,219.6L226.4,219.85C228.82,219.988 231.97,219.881 233.4,219.614L236,219.127L236,158.4L221.581,158.4L221.79,189M71.337,170.124C74.19,172.706 71.955,178.4 68.089,178.4C64.151,178.4 61.517,172.992 63.998,170.002C65.326,168.402 69.511,168.472 71.337,170.124M335.84,169.76C337.487,171.407 337.004,175.766 335.022,177.155C330.179,180.547 324.585,174.615 328.524,170.263C330.027,168.602 334.383,168.303 335.84,169.76M184.775,178.467C184.789,179.163 185.035,179.969 185.323,180.257C185.874,180.807 190.385,193.567 190.395,194.6C190.398,194.93 187.16,195.2 183.2,195.2C174.93,195.2 175.202,195.64 178.357,187.374C179.653,183.978 181.17,179.706 181.727,177.88C182.75,174.526 184.703,174.903 184.775,178.467M71.2,219.2C73.669,221.669 72.931,225.417 69.627,227.185C66.315,228.958 61.905,224.723 63.257,221.068C64.551,217.571 68.615,216.615 71.2,219.2M335.022,218.845C338.032,220.954 337.352,225.237 333.7,227.162C332.078,228.017 331.493,227.935 329.7,226.602C324.235,222.541 329.448,214.941 335.022,218.845M90.537,257.324C92.198,258.827 92.497,263.183 91.04,264.64C88.398,267.282 82.4,264.734 82.4,260.97C82.4,256.964 87.577,254.645 90.537,257.324M315.969,257.751C319.111,261.123 317.096,265.6 312.436,265.6C309.288,265.6 308,264.352 308,261.303C308,256.458 312.779,254.327 315.969,257.751" style="fill:white;"/>
    </g>
</svg>
