<?xml version="1.0" encoding="UTF-8" standalone="no"?>
<!DOCTYPE svg PUBLIC "-//W3C//DTD SVG 1.1//EN" "http://www.w3.org/Graphics/SVG/1.1/DTD/svg11.dtd">
<svg width="100%" height="100%" viewBox="0 0 400 400" version="1.1" xmlns="http://www.w3.org/2000/svg" xmlns:xlink="http://www.w3.org/1999/xlink" xml:space="preserve" xmlns:serif="http://www.serif.com/" style="fill-rule:evenodd;clip-rule:evenodd;stroke-linejoin:round;stroke-miterlimit:2;">
    <g id="path0" transform="matrix(1.356449,0,0,1.356449,-72.61703,-65.496607)">
        <g id="svgg">
            <path id="path01" serif:id="path0" d="M193.555,92.375C192.266,92.658 190.006,93.347 188.533,93.904C187.061,94.461 185.671,94.803 185.446,94.664C185.22,94.525 185.141,94.581 185.27,94.79C185.399,94.999 184.416,95.804 183.085,96.578C177.918,99.582 171.224,105.75 166.827,111.559C165.703,113.043 164.578,114.266 164.326,114.276C164.073,114.285 163.914,114.512 163.97,114.78C164.463,117.111 163.226,116.756 160,113.642C147.228,101.313 134.168,97.513 121.773,102.519C120.466,103.047 119.224,103.372 119.013,103.242C118.802,103.111 118.739,103.182 118.873,103.398C119.175,103.887 117.285,104.794 116.707,104.437C116.475,104.293 116.394,104.351 116.526,104.565C116.83,105.058 114.571,106.76 114.044,106.434C113.829,106.301 113.701,106.369 113.76,106.585C113.912,107.142 109.332,110.957 108.862,110.666C108.648,110.534 108.577,110.594 108.703,110.798C109,111.28 105.089,115.862 104.527,115.69C104.293,115.618 104.226,115.685 104.379,115.837C104.643,116.101 101.549,120.858 100.579,121.68C100.325,121.895 100.097,122.246 100.073,122.461C100.048,122.676 99.298,124.126 98.407,125.684C92.055,136.786 87.785,152.863 86.865,169.141C86.714,171.826 86.529,173.843 86.456,173.623C86.382,173.402 85.664,173.266 84.86,173.32C84.056,173.374 80.322,173.484 76.563,173.565C70.763,173.69 69.406,173.837 67.615,174.537C66.454,174.991 65.311,175.252 65.076,175.118C64.841,174.984 64.775,175.014 64.929,175.185C65.083,175.356 64.463,176.066 63.55,176.762C52.948,184.858 58.262,201.612 71.976,203.325C74.199,203.603 74.215,203.615 74.636,205.22C74.869,206.109 75.321,207.756 75.642,208.882C75.962,210.007 76.097,211.132 75.942,211.383C75.778,211.65 75.829,211.735 76.066,211.589C76.305,211.441 76.652,212.05 76.908,213.068C77.454,215.239 77.452,215.335 76.855,215.033C76.587,214.897 76.687,215.047 77.079,215.367C77.978,216.101 78.96,219.3 78.7,220.653C78.554,221.415 78.586,221.491 78.824,220.95C79.235,220.012 81.78,228.425 81.419,229.53C81.242,230.074 81.277,230.132 81.552,229.748C82.014,229.102 82.606,231.007 82.176,231.756C82.027,232.015 82.053,232.093 82.232,231.931C82.679,231.525 85.616,240.915 85.365,241.946C85.254,242.401 85.275,242.521 85.412,242.212C85.679,241.609 90.625,255.43 90.686,256.95C90.706,257.442 90.817,257.751 90.933,257.635C91.346,257.222 92.571,260.639 92.375,261.659C92.222,262.452 92.252,262.519 92.503,261.945C92.784,261.301 92.924,261.429 93.493,262.85C93.857,263.76 94.037,264.696 93.892,264.93C93.748,265.164 93.8,265.249 94.009,265.12C94.218,264.991 94.859,265.843 95.432,267.013C96.006,268.183 97.35,270.55 98.418,272.273C99.487,273.995 100.268,275.647 100.154,275.944C100.04,276.241 100.164,276.618 100.43,276.782C100.777,276.997 100.84,276.87 100.651,276.334C100.394,275.601 100.4,275.601 100.963,276.327C101.279,276.735 101.428,277.245 101.294,277.462C101.161,277.678 101.234,277.742 101.458,277.604C101.682,277.465 102.58,278.279 103.453,279.411C104.327,280.544 105.484,281.886 106.024,282.393C106.565,282.901 106.897,283.511 106.761,283.748C106.626,283.986 106.655,284.054 106.826,283.9C106.996,283.745 108.211,284.552 109.525,285.692C113.073,288.77 116.115,290.902 119.671,292.802C121.42,293.737 122.822,294.64 122.786,294.809C122.751,294.979 122.823,295.205 122.947,295.313C123.071,295.42 123.027,295.258 122.85,294.953C122.607,294.534 122.695,294.463 123.21,294.66C123.585,294.804 124.097,294.925 124.348,294.928C124.619,294.931 124.566,295.106 124.219,295.355C123.713,295.719 123.721,295.749 124.273,295.574C124.625,295.462 126.295,295.798 127.984,296.32C134.726,298.404 135.756,298.478 157.569,298.45C173.376,298.43 177.968,298.533 178.445,298.919C178.94,299.32 178.999,299.319 178.755,298.912C178.511,298.507 181.491,298.42 194.306,298.458C206.233,298.494 210.092,298.619 209.888,298.96C209.69,299.289 209.774,299.286 210.191,298.949C210.623,298.6 217.556,298.482 238.098,298.475C266.807,298.466 268.291,298.389 273.541,296.645C274.574,296.302 275.686,296.123 276.011,296.248C276.337,296.373 276.504,296.314 276.382,296.117C276.26,295.92 276.559,295.638 277.045,295.489C278.349,295.089 284.771,291.847 286.023,290.955C286.618,290.531 287.308,290.311 287.558,290.465C287.822,290.629 287.906,290.576 287.759,290.338C287.621,290.114 288.165,289.436 288.969,288.831C304.077,277.459 308.699,267.543 324.822,211.914C327.491,202.705 326.899,203.661 330.262,203.126C343.204,201.064 348.573,186.498 339.515,178.025C335.541,174.308 332.283,173.402 323.047,173.445C319.717,173.46 316.534,173.465 315.973,173.455L314.954,173.438L314.681,168.652C314.531,166.021 314.145,161.955 313.822,159.617C313.5,157.28 313.333,155.117 313.45,154.812C313.567,154.506 313.518,154.346 313.341,154.455C313.164,154.564 312.811,153.522 312.556,152.138C311.85,148.306 309.615,140.939 307.652,135.973C306.683,133.521 305.998,131.341 306.131,131.127C306.263,130.914 306.188,130.851 305.965,130.989C305.742,131.127 305.345,130.723 305.084,130.092C304.822,129.46 303.839,127.593 302.899,125.944C301.959,124.294 301.301,122.747 301.439,122.507C301.576,122.267 301.546,122.199 301.372,122.356C301.198,122.514 300.201,121.429 299.156,119.946C298.111,118.463 295.863,115.672 294.161,113.743C292.459,111.814 291.187,110.102 291.334,109.938C291.481,109.774 291.392,109.76 291.137,109.907C290.881,110.054 290.09,109.663 289.379,109.039C288.668,108.414 286.816,107.029 285.264,105.96C283.712,104.891 282.569,103.875 282.725,103.703C282.881,103.531 282.815,103.5 282.578,103.635C282.342,103.77 280.936,103.372 279.453,102.752C272.247,99.739 263.64,99.665 256.527,102.555C255.279,103.062 254.048,103.426 253.789,103.365C253.531,103.303 253.458,103.329 253.627,103.421C253.795,103.514 252.916,104.2 251.673,104.946C247.921,107.198 243.947,110.429 240.667,113.893L237.56,117.176L235.712,114.545C234.696,113.098 233.521,111.532 233.102,111.064C232.663,110.574 232.466,110.011 232.637,109.734C232.819,109.439 232.771,109.354 232.512,109.515C232.095,109.772 227.539,104.962 227.539,104.265C227.539,104.068 227.363,103.887 227.148,103.863C226.389,103.78 224.603,102.279 224.829,101.914C224.955,101.71 224.913,101.585 224.736,101.636C224.093,101.821 222.637,100.738 222.903,100.273C223.051,100.016 223.041,99.922 222.882,100.065C222.722,100.208 221.243,99.415 219.596,98.302C217.949,97.189 215.723,95.841 214.648,95.307C213.574,94.773 212.566,94.16 212.408,93.945C212.25,93.73 212.119,93.677 212.115,93.827C212.112,93.977 211.582,93.916 210.938,93.692C210.278,93.461 209.878,93.103 210.022,92.87C210.17,92.631 210.091,92.572 209.835,92.731C209.592,92.881 208.078,92.732 206.471,92.4C202.964,91.676 196.786,91.664 193.555,92.375M203.711,101.812C206.312,102.202 209.372,103.5 209.406,104.227C209.426,104.657 209.506,104.71 209.639,104.379C209.993,103.497 216.475,107.749 216.291,108.743C216.247,108.983 216.483,109.136 216.816,109.083C217.149,109.03 218.116,109.715 218.965,110.605C219.813,111.496 220.3,112.108 220.047,111.965C219.793,111.823 219.484,111.869 219.361,112.069C219.238,112.268 219.445,112.38 219.822,112.317C220.643,112.18 222.731,114.016 222.387,114.573C222.254,114.788 222.322,114.855 222.538,114.722C223.087,114.382 227.085,119.392 226.727,119.971C226.554,120.252 226.609,120.33 226.867,120.17C227.434,119.82 229.448,122.486 229.075,123.09C228.902,123.37 228.951,123.456 229.196,123.305C229.512,123.109 230.199,124.006 230.113,124.502C230.105,124.551 230.536,125.063 231.071,125.64C231.727,126.348 231.97,126.955 231.816,127.505C231.657,128.077 231.698,128.165 231.951,127.799C232.395,127.161 232.98,128.32 232.558,129.002C232.41,129.242 232.486,129.304 232.737,129.148C233.276,128.815 234.91,131.873 234.525,132.496C234.348,132.782 234.433,132.823 234.772,132.613C235.15,132.379 235.22,132.473 235.032,132.964C234.89,133.333 234.926,133.541 235.11,133.427C235.71,133.056 240.029,143.093 239.671,144.027C239.556,144.326 239.628,144.469 239.832,144.343C240.175,144.131 241.871,149.091 242.367,151.758C242.576,152.882 242.561,152.874 241.992,151.563C241.424,150.253 241.409,150.245 241.619,151.367C241.741,152.012 242.066,152.715 242.343,152.93C242.884,153.35 243.626,156.141 243.953,158.984C244.065,159.951 244.315,161.771 244.511,163.029C244.706,164.287 244.985,167.143 245.131,169.375L245.397,173.435L156.144,173.433L156.409,169.236C157.236,156.12 160.085,144.442 165.086,133.666C168.049,127.283 173.905,118.119 174.705,118.614C174.955,118.768 175.006,118.685 174.832,118.403C174.458,117.798 176.473,115.133 177.039,115.483C177.285,115.635 177.353,115.566 177.2,115.318C176.578,114.311 186.946,104.782 188.159,105.247C188.463,105.364 188.609,105.292 188.482,105.088C188.233,104.684 191.067,103.141 193.516,102.347C196.764,101.295 199.351,101.159 203.711,101.812M137.695,110.627C140.042,111.216 144.231,113.209 143.979,113.617C143.858,113.813 144.064,114.214 144.438,114.507C145.053,114.988 145.066,114.974 144.581,114.355C143.912,113.502 144.268,113.482 145.518,114.301C146.046,114.646 146.364,115.113 146.225,115.337C146.087,115.562 146.155,115.633 146.378,115.495C146.93,115.155 148.901,116.754 148.576,117.279C148.43,117.516 148.499,117.586 148.735,117.441C149.306,117.088 151.63,119.098 151.306,119.665C151.163,119.913 151.196,119.982 151.378,119.816C151.782,119.449 154.739,122.256 154.447,122.729C154.332,122.915 154.427,123.018 154.658,122.959C154.888,122.9 155.665,123.543 156.383,124.388L157.69,125.925L155.454,130.638C150.288,141.524 147.084,153.453 146.255,164.881C146.109,166.901 145.83,168.862 145.637,169.238C145.443,169.614 145.424,169.922 145.595,169.922C145.765,169.922 145.84,170.721 145.763,171.699C145.635,173.305 145.569,173.408 145.075,172.773C144.585,172.142 144.553,172.139 144.764,172.745C144.984,173.378 143.565,173.42 121.179,173.431L97.36,173.444L97.491,171.195C97.563,169.957 97.717,167.303 97.833,165.296C98.497,153.783 102.043,140.594 107.117,130.765C108.017,129.021 108.851,127.847 109.087,127.993C109.322,128.139 109.38,128.058 109.222,127.803C108.488,126.615 119.141,113.925 120.282,114.629C120.527,114.781 120.675,114.693 120.615,114.43C120.497,113.91 125.309,111.155 127.109,110.712C128.008,110.49 128.183,110.545 127.959,110.978C127.804,111.278 127.919,111.228 128.216,110.868C129.09,109.807 133.942,109.684 137.695,110.627M276.491,112.108C278.278,112.962 279.642,113.82 279.523,114.013C279.403,114.207 279.611,114.341 279.985,114.311C280.358,114.282 280.627,114.457 280.582,114.7C280.536,114.943 280.743,115.119 281.041,115.091C282.424,114.959 290.34,123.638 289.427,124.286C288.971,124.61 288.989,124.644 289.529,124.472C292.532,123.512 302.767,149.804 303.216,159.635C303.273,160.888 303.44,162.005 303.585,162.115C303.731,162.226 303.974,164.862 304.125,167.975L304.4,173.633L255.859,173.633L255.859,172.811C255.859,160.227 251.689,143.326 245.47,130.705L242.988,125.669L245.692,122.669C251.913,115.768 258.689,110.87 261.089,111.54C261.693,111.708 261.768,111.669 261.37,111.394C260.972,111.119 261.391,110.901 262.933,110.582C268.048,109.521 272.016,109.967 276.491,112.108M303.606,171.094C303.606,171.846 303.687,172.153 303.785,171.777C303.883,171.401 303.883,170.786 303.785,170.41C303.687,170.034 303.606,170.342 303.606,171.094M315.488,204.393C313.668,211.398 310.7,220.993 310.409,220.813C310.204,220.686 310.156,220.777 310.303,221.015C310.45,221.254 310.46,221.891 310.324,222.433L310.077,223.417L282.675,223.472C253.055,223.531 253.86,223.522 254.121,223.782C254.401,224.063 253.056,225.394 252.709,225.18C252.538,225.074 252.271,225.193 252.115,225.445C251.935,225.736 252.002,225.797 252.299,225.614C252.782,225.315 252.614,226.495 251.897,228.44C251.683,229.02 251.704,229.256 251.954,229.101C252.169,228.968 252.344,229.157 252.344,229.521C252.344,230.684 253.877,232.71 255.25,233.361C256.434,233.923 259.37,233.993 281.652,233.996L306.722,233.999L306.468,235.066C306.328,235.653 305.25,239.165 304.072,242.871L301.93,249.609L273.328,249.611C245.65,249.612 244.686,249.637 243.476,250.375C241.027,251.868 240.286,255.244 241.845,257.802C242.582,259.009 242.592,259.095 241.942,258.583C241.272,258.056 241.255,258.064 241.737,258.679C242.026,259.048 242.377,259.318 242.518,259.28C242.658,259.241 243.213,259.464 243.75,259.775C244.57,260.25 248.915,260.36 270.882,260.46C285.268,260.526 297.107,260.649 297.192,260.734C297.663,261.205 291.927,270.439 291.376,270.098C291.207,269.994 290.942,270.115 290.787,270.366C290.61,270.652 290.674,270.719 290.955,270.545C291.829,270.005 291.393,270.961 290.277,272.029C289.552,272.724 289.053,272.957 288.883,272.682C288.737,272.446 288.451,272.356 288.248,272.482C288.044,272.607 287.981,272.877 288.107,273.08C288.232,273.284 288.499,273.349 288.699,273.226C289.588,272.676 288.942,273.804 287.793,274.807C287.095,275.416 285.857,276.506 285.043,277.228C284.228,277.951 283.366,278.421 283.127,278.273C282.868,278.113 282.801,278.181 282.962,278.441C284.091,280.269 271.897,284.746 265.785,284.747C264.086,284.748 261.904,284.78 260.938,284.819C259.971,284.857 258.564,284.879 257.813,284.866C255.418,284.825 240.96,284.817 186.719,284.829C129.5,284.841 131.685,284.915 125.996,282.786C124.302,282.152 123.869,281.844 124.27,281.558C124.675,281.269 124.632,281.232 124.091,281.408C122.91,281.791 114.862,276.349 115.137,275.354C115.19,275.159 115.074,275.044 114.879,275.098C114.334,275.247 109.738,269.793 109.946,269.243C110.046,268.977 109.943,268.801 109.717,268.852C109.377,268.929 104.324,261.175 104.304,260.547C104.301,260.439 117.311,260.31 133.215,260.258C165.455,260.154 163.764,260.303 165.231,257.429C166.184,255.56 166.221,254.262 165.371,252.471C164.028,249.64 166.252,249.827 131.267,249.609L99.805,249.414L99.834,248.555C99.85,248.082 99.754,247.762 99.62,247.845C99.427,247.964 96.258,238.818 95.122,234.865L94.871,233.988L122.053,233.99C152.516,233.991 151.316,234.101 152.896,231.167C153.592,229.875 153.515,224.48 152.81,225.184C152.709,225.286 152.11,224.934 151.478,224.403C150.792,223.826 149.833,223.435 149.091,223.431C148.409,223.428 135.146,223.424 119.616,223.423L91.381,223.421L90.972,222.355C90.747,221.769 90.533,220.736 90.496,220.059C90.46,219.382 90.335,218.886 90.22,218.956C90.105,219.026 89.078,215.816 87.937,211.822C86.797,207.828 85.774,204.326 85.665,204.04C85.499,203.609 104.965,203.52 200.591,203.517L315.717,203.513L315.488,204.393M156.423,299.255C156.302,299.45 156.654,299.609 157.204,299.609C158.4,299.609 158.497,299.387 157.422,299.106C156.993,298.993 156.543,299.061 156.423,299.255M187.747,299.136C187.642,299.305 188.027,299.479 188.602,299.523C189.408,299.583 189.514,299.514 189.063,299.221C188.346,298.755 187.996,298.733 187.747,299.136M203.726,299.242C204,299.686 205.078,299.734 205.078,299.302C205.078,299.133 204.723,298.968 204.288,298.935C203.854,298.902 203.601,299.041 203.726,299.242" style="fill:rgb(233,177,44);"/>
        </g>
    </g>
</svg>
